<svg width="21" height="20" viewBox="0 0 21 20" fill="none" xmlns="http://www.w3.org/2000/svg">
<path d="M20.4693 9.16667C20.4693 7.85833 19.8439 6.63333 18.8016 5.85V5.83333C18.8016 4.25 17.6926 2.925 16.2166 2.58333C15.8747 1.10833 14.5489 0 12.9646 0C11.9723 0 11.0717 0.441667 10.463 1.13333C9.85427 0.441667 8.9537 0 7.96141 0C6.37707 0 5.05124 1.10833 4.70935 2.58333C3.23342 2.925 2.12439 4.25 2.12439 5.83333V5.85C1.08206 6.63333 0.456665 7.85833 0.456665 9.16667C0.456665 9.90833 0.656792 10.6167 1.03203 11.25C0.656792 11.8833 0.456665 12.5917 0.456665 13.3333C0.456665 14.7417 1.17378 16.0333 2.34953 16.8083C2.94991 18.7083 4.69268 20 6.71062 20C8.2616 20 9.62913 19.225 10.463 18.05C11.2969 19.225 12.6644 20 14.2154 20C16.2333 20 17.9761 18.7 18.5765 16.8083C19.7522 16.0417 20.4693 14.7417 20.4693 13.3333C20.4693 12.5917 20.2692 11.8833 19.8939 11.25C20.2692 10.6167 20.4693 9.90833 20.4693 9.16667ZM6.71062 18.3333C5.35143 18.3333 4.18402 17.4 3.87549 16.075L3.79211 15.7083L3.45856 15.5333C2.64138 15.0917 2.12439 14.25 2.12439 13.3417C2.12439 12.7833 2.31617 12.2417 2.69141 11.7833L3.11668 11.2583L2.69141 10.7333C2.32451 10.275 2.12439 9.73333 2.12439 9.175C2.12439 8.28333 2.61636 7.45 3.40853 7.00833L3.92552 6.71667C3.92552 6.71667 3.79211 5.94167 3.79211 5.84167C3.79211 4.925 4.54258 4.175 5.45983 4.175H6.29369V3.34167C6.29369 2.425 7.04416 1.675 7.96141 1.675C8.87866 1.675 9.62913 2.425 9.62913 3.34167V15.425C9.62913 17.0333 8.31997 18.3417 6.71062 18.3417V18.3333ZM18.2346 11.775C18.6015 12.2333 18.8016 12.775 18.8016 13.3333C18.8016 14.25 18.2929 15.0833 17.4674 15.525L17.1339 15.7L17.0505 16.0667C16.742 17.4 15.5746 18.325 14.2154 18.325C12.606 18.325 11.2969 17.0167 11.2969 15.4083V3.33333C11.2969 2.41667 12.0473 1.66667 12.9646 1.66667C13.8818 1.66667 14.6323 2.41667 14.6323 3.33333V4.16667H15.4662C16.3834 4.16667 17.1339 4.91667 17.1339 5.83333C17.1339 5.93333 17.0005 6.70833 17.0005 6.70833L17.5174 7C18.3096 7.45 18.8016 8.275 18.8016 9.16667C18.8016 9.73333 18.6098 10.2667 18.2346 10.725L17.8093 11.25L18.2346 11.775Z" fill="#4F378A"/>
</svg>
