<svg width="41" height="40" viewBox="0 0 41 40" fill="none" xmlns="http://www.w3.org/2000/svg">
<mask id="mask0_23_204" style="mask-type:luminance" maskUnits="userSpaceOnUse" x="0" y="0" width="41" height="40">
<path d="M40.9589 0H0.933594V40H40.9589V0Z" fill="white"/>
</mask>
<g mask="url(#mask0_23_204)">
<path d="M19.2252 38.603C19.3853 39.037 19.1551 39.513 18.7249 39.667C18.0945 39.887 17.444 40 16.7736 40H15.1126C11.8906 40 9.26882 37.383 9.26882 34.167V33.587C9.26882 30.742 8.07816 28.052 5.98684 26.202C2.21446 22.865 0.383274 17.873 1.08372 12.848C2.0043 6.22699 7.50773 0.866991 14.1719 0.102991C22.0569 -0.802009 29.3316 4.57801 30.7224 12.355C30.8025 12.808 30.4922 13.242 30.042 13.322C29.5817 13.402 29.1614 13.102 29.0814 12.648C27.8506 5.737 21.3766 0.958004 14.3621 1.76C8.44839 2.44 3.5553 7.19998 2.73479 13.08C2.11439 17.55 3.73539 21.99 7.08751 24.957C8.62849 26.317 9.74911 28.065 10.3795 30.002H15.1026V17.432C12.7411 17.033 10.9399 14.975 10.9399 12.502C10.9399 12.042 11.3101 11.668 11.7704 11.668C12.2307 11.668 12.601 12.042 12.601 12.502C12.601 14.34 14.1019 15.835 15.9431 15.835C17.7842 15.835 19.2751 14.34 19.2751 12.502C19.2751 12.042 19.6455 11.668 20.1058 11.668C20.566 11.668 20.9462 12.042 20.9462 12.502C20.9462 14.975 19.1351 17.033 16.7736 17.432V30.835C16.7736 31.295 16.4034 31.668 15.9431 31.668H10.7798C10.8799 32.298 10.9399 32.94 10.9399 33.588V34.168C10.9399 36.465 12.8111 38.335 15.1026 38.335H16.7736C17.2539 38.335 17.7242 38.255 18.1645 38.098C18.5947 37.943 19.0751 38.17 19.2252 38.605V38.603ZM32.6237 28.333C32.6237 30.172 31.1226 31.667 29.2815 31.667C27.4403 31.667 25.9494 30.172 25.9494 28.333C25.9494 26.495 27.4403 25 29.2815 25C31.1226 25 32.6237 26.495 32.6237 28.333ZM30.9526 28.333C30.9526 27.415 30.2021 26.667 29.2815 26.667C28.3609 26.667 27.6205 27.415 27.6205 28.333C27.6205 29.252 28.3609 30 29.2815 30C30.2021 30 30.9526 29.252 30.9526 28.333ZM39.6281 32.32C39.7982 32.967 39.6981 33.64 39.3679 34.215C39.0277 34.792 38.4873 35.203 37.8369 35.373C37.1965 35.543 36.5261 35.452 35.9457 35.113L34.8751 34.49C33.9845 35.305 32.9338 35.91 31.7831 36.27V37.5C31.7831 38.878 30.6623 40 29.2815 40C27.9006 40 26.7799 38.878 26.7799 37.5V36.27C25.6392 35.91 24.5885 35.305 23.688 34.49L22.6173 35.113C22.047 35.452 21.3665 35.543 20.7261 35.373C20.0757 35.203 19.5354 34.792 19.1951 34.215C18.8649 33.64 18.7749 32.967 18.935 32.32C19.1051 31.673 19.5254 31.132 20.0957 30.795L21.1764 30.167C21.0163 29.525 20.9462 28.922 20.9462 28.333C20.9462 27.745 21.0163 27.142 21.1764 26.498L20.0957 25.87C19.5254 25.533 19.1051 24.992 18.935 24.345C18.7649 23.698 18.8649 23.025 19.1951 22.45C19.5354 21.873 20.0757 21.463 20.7261 21.293C21.3665 21.123 22.047 21.217 22.6173 21.552L23.688 22.175C24.5885 21.362 25.6392 20.755 26.7799 20.397V19.167C26.7799 17.788 27.9006 16.667 29.2815 16.667C30.6623 16.667 31.7831 17.788 31.7831 19.167V20.397C32.9338 20.757 33.9745 21.362 34.8751 22.175L35.9457 21.552C36.5261 21.215 37.1965 21.125 37.8369 21.293C38.4873 21.463 39.0277 21.875 39.3679 22.452C39.6981 23.028 39.7982 23.702 39.6281 24.347C39.458 24.993 39.0477 25.533 38.4673 25.872L37.3867 26.498C37.5468 27.14 37.6268 27.745 37.6268 28.333C37.6268 28.922 37.5468 29.527 37.3867 30.167L38.4673 30.795C39.0477 31.132 39.458 31.673 39.6281 32.32ZM38.0071 32.743C37.9571 32.528 37.817 32.348 37.6268 32.237L35.9958 31.283C35.6556 31.087 35.5055 30.685 35.6156 30.313C35.8457 29.583 35.9557 28.953 35.9557 28.335C35.9557 27.717 35.8457 27.087 35.6156 26.355C35.5055 25.983 35.6556 25.582 35.9958 25.385L37.6268 24.433C37.817 24.322 37.9571 24.142 38.0071 23.927C38.0671 23.712 38.037 23.487 37.927 23.295C37.8169 23.103 37.6268 22.965 37.4166 22.91C37.1965 22.852 36.9763 22.885 36.7862 22.995L35.1652 23.94C34.825 24.135 34.4048 24.075 34.1346 23.792C33.2141 22.815 32.0533 22.143 30.7625 21.85C30.3823 21.763 30.1121 21.427 30.1121 21.038V19.172C30.1121 18.712 29.7418 18.338 29.2815 18.338C28.8212 18.338 28.451 18.712 28.451 19.172V21.038C28.451 21.427 28.1808 21.765 27.8006 21.85C26.5097 22.143 25.349 22.815 24.4284 23.792C24.1683 24.075 23.738 24.135 23.3977 23.94L21.7867 22.995C21.5866 22.883 21.3665 22.852 21.1463 22.91C20.9362 22.967 20.7561 23.103 20.646 23.295C20.5259 23.488 20.4959 23.712 20.556 23.927C20.616 24.142 20.7461 24.323 20.9362 24.435L22.5773 25.387C22.9075 25.582 23.0676 25.983 22.9475 26.355C22.7174 27.088 22.6073 27.718 22.6073 28.335C22.6073 28.952 22.7174 29.582 22.9475 30.315C23.0676 30.687 22.9075 31.088 22.5773 31.285L20.9362 32.238C20.7461 32.35 20.606 32.532 20.556 32.747C20.4959 32.962 20.5259 33.185 20.646 33.377C20.7561 33.57 20.9362 33.707 21.1463 33.763C21.3665 33.82 21.5866 33.79 21.7867 33.677L23.4078 32.732C23.5378 32.655 23.678 32.618 23.8281 32.618C24.0482 32.618 24.2683 32.708 24.4284 32.882C25.349 33.858 26.5097 34.53 27.8006 34.823C28.1808 34.91 28.451 35.247 28.451 35.635V37.502C28.451 37.962 28.8212 38.335 29.2815 38.335C29.7418 38.335 30.1221 37.962 30.1221 37.502V35.635C30.1221 35.247 30.3823 34.908 30.7625 34.823C32.0533 34.53 33.2241 33.858 34.1346 32.882C34.4048 32.597 34.835 32.535 35.1652 32.732L36.7862 33.677C36.9763 33.79 37.2065 33.818 37.4166 33.763C37.6368 33.707 37.8169 33.57 37.927 33.378C38.037 33.185 38.0671 32.962 38.0171 32.747L38.0071 32.743Z" fill="#1AC3E4"/>
</g>
</svg>
