<svg width="31" height="30" viewBox="0 0 31 30" fill="none" xmlns="http://www.w3.org/2000/svg">
<mask id="mask0_23_158" style="mask-type:luminance" maskUnits="userSpaceOnUse" x="0" y="0" width="31" height="30">
<path d="M30.9526 0H0.933594V30H30.9526V0Z" fill="white"/>
</mask>
<g mask="url(#mask0_23_158)">
<path d="M29.0814 4.97H25.219C24.9688 4.97 24.7286 5.043 24.5184 5.181C24.3183 5.318 24.1583 5.513 24.0582 5.742C23.9681 5.97 23.9382 6.22099 23.9882 6.46399C24.0382 6.70599 24.1583 6.929 24.3284 7.104L25.6892 8.461L21.2064 12.943C20.9663 13.17 20.646 13.297 20.3158 13.297C19.9856 13.297 19.6754 13.17 19.4353 12.943L19.2252 12.729C18.5047 12.046 17.5541 11.666 16.5735 11.666C15.5829 11.666 14.6322 12.046 13.9118 12.729L7.53774 19.104C7.29759 19.339 7.16751 19.659 7.16751 19.991C7.16751 20.324 7.30759 20.643 7.53774 20.878C7.77789 21.112 8.09811 21.244 8.42832 21.244C8.75853 21.243 9.07874 21.111 9.3189 20.875L15.6929 14.5C15.9331 14.272 16.2433 14.145 16.5735 14.145C16.9037 14.145 17.2239 14.272 17.4641 14.5L17.6742 14.714C18.3946 15.396 19.3452 15.776 20.3259 15.776C21.3165 15.776 22.2671 15.396 22.9876 14.714L27.4704 10.231L28.8312 11.589C29.0013 11.761 29.2215 11.877 29.4616 11.924C29.7018 11.97 29.9519 11.944 30.1821 11.85C30.4122 11.755 30.6024 11.596 30.7425 11.392C30.8826 11.188 30.9526 10.948 30.9526 10.703V6.845C30.9526 6.348 30.7524 5.87101 30.4022 5.51901C30.0519 5.16801 29.5717 4.97 29.0814 4.97Z" fill="#F9B212"/>
<path d="M35.7056 25.47H13.1913C12.2007 25.47 11.2401 25.075 10.5396 24.372C9.83919 23.668 9.43896 22.715 9.43896 21.72V-0.75C9.43896 -1.082 9.30888 -1.399 9.06873 -1.634C8.83858 -1.868 8.51838 -2 8.18817 -2C7.85796 -2 7.53775 -1.868 7.30761 -1.634C7.06746 -1.399 6.93738 -1.082 6.93738 -0.75V21.72C6.93738 23.377 7.59775 24.966 8.76849 26.137C9.93923 27.309 11.5303 27.968 13.1913 27.97H35.7056C36.0358 27.97 36.356 27.838 36.5861 27.604C36.8263 27.369 36.9564 27.052 36.9564 26.72C36.9564 26.388 36.8263 26.071 36.5861 25.836C36.356 25.602 36.0358 25.47 35.7056 25.47Z" fill="#F9B212"/>
</g>
</svg>
