<svg width="41" height="35" viewBox="0 0 41 35" fill="none" xmlns="http://www.w3.org/2000/svg">
<path d="M15.7937 12.313C15.6406 12.467 15.6406 12.715 15.7937 12.868L18.5025 15.463C19.1659 16.1 19.1889 17.157 18.5505 17.82C17.9121 18.485 16.8564 18.505 16.192 17.868L13.4603 15.248C11.9834 13.772 11.9833 11.408 13.4353 9.95499L16.239 7.15302C16.8914 6.50202 17.9451 6.50202 18.5975 7.15302C19.2489 7.80502 19.2489 8.85801 18.5975 9.51001L15.7937 12.313ZM22.8632 15.463C22.1998 16.1 22.1758 17.157 22.8152 17.82C23.4536 18.485 24.5092 18.505 25.1727 17.868L27.9294 15.225C29.3843 13.772 29.3843 11.408 27.9294 9.957L25.1267 7.155C24.4743 6.503 23.4206 6.503 22.7682 7.155C22.1158 7.807 22.1158 8.85999 22.7682 9.51199L25.572 12.313C25.7251 12.467 25.725 12.715 25.5969 12.843L22.8652 15.463H22.8632ZM17.3467 21.667H17.2027L16.0239 20.488C15.7107 20.175 15.2864 20 14.8451 20H7.3404V8.33301C7.3404 5.57701 9.58482 3.33301 12.3436 3.33301H29.0201C31.7789 3.33301 34.0233 5.57701 34.0233 8.33301C34.0233 9.25301 34.7707 10 35.6913 10C36.6119 10 37.3594 9.25301 37.3594 8.33301C37.3594 3.73801 33.618 0 29.0201 0H12.3436C7.74566 0 4.00431 3.73801 4.00431 8.33301V20.307C2.06808 20.997 0.669189 22.83 0.669189 25C0.669189 27.757 2.91361 30 5.67235 30H14.0106C14.9312 30 15.6787 29.255 15.6787 28.333C15.6787 27.412 14.9312 26.667 14.0106 26.667H5.67235C4.75377 26.667 4.00431 25.92 4.00431 25C4.00431 24.08 4.75377 23.333 5.67235 23.333H14.1547L15.3335 24.512C15.6467 24.825 16.0709 25 16.5122 25H17.3467C18.2673 25 19.0138 24.255 19.0138 23.333C19.0138 22.412 18.2673 21.667 17.3467 21.667ZM39.2285 21.868L28.0435 33.047C26.7837 34.307 25.1076 35 23.3265 35H20.6818C19.7613 35 19.0138 34.255 19.0138 33.333V30.69C19.0138 28.91 19.7092 27.235 20.969 25.977L32.1541 14.798C34.0433 12.908 37.3394 12.908 39.2306 14.798C41.1798 16.748 41.1778 19.918 39.2285 21.868ZM36.8701 17.155C36.2397 16.523 35.141 16.523 34.5126 17.155L23.3255 28.333C22.6951 28.963 22.3479 29.8 22.3479 30.69V31.667H23.3255C24.2021 31.667 25.0626 31.31 25.683 30.69L36.8691 19.512C37.5195 18.862 37.5205 17.805 36.8701 17.155Z" fill="#4F378A"/>
</svg>
