<svg width="41" height="35" viewBox="0 0 41 35" fill="none" xmlns="http://www.w3.org/2000/svg">
<path d="M15.5173 12.313C15.3642 12.467 15.3642 12.715 15.5173 12.868L18.2261 15.463C18.8895 16.1 18.9125 17.157 18.2741 17.82C17.6357 18.485 16.58 18.505 15.9156 17.868L13.1839 15.248C11.7069 13.772 11.7069 11.408 13.1588 9.95499L15.9626 7.15302C16.615 6.50202 17.6687 6.50202 18.3211 7.15302C18.9725 7.80502 18.9725 8.85801 18.3211 9.51001L15.5173 12.313ZM22.5868 15.463C21.9234 16.1 21.8994 17.157 22.5388 17.82C23.1772 18.485 24.2328 18.505 24.8962 17.868L27.653 15.225C29.1079 13.772 29.1079 11.408 27.653 9.957L24.8502 7.155C24.1978 6.503 23.1442 6.503 22.4918 7.155C21.8393 7.807 21.8393 8.85999 22.4918 9.51199L25.2955 12.313C25.4486 12.467 25.4486 12.715 25.3205 12.843L22.5888 15.463H22.5868ZM17.0703 21.667H16.9262L15.7474 20.488C15.4342 20.175 15.01 20 14.5687 20H7.06397V8.33301C7.06397 5.57701 9.30839 3.33301 12.0671 3.33301H28.7437C31.5024 3.33301 33.7469 5.57701 33.7469 8.33301C33.7469 9.25301 34.4943 10 35.4149 10C36.3355 10 37.0829 9.25301 37.0829 8.33301C37.0829 3.73801 33.3416 0 28.7437 0H12.0671C7.46923 0 3.72788 3.73801 3.72788 8.33301V20.307C1.79165 20.997 0.392761 22.83 0.392761 25C0.392761 27.757 2.63718 30 5.39592 30H13.7342C14.6548 30 15.4022 29.255 15.4022 28.333C15.4022 27.412 14.6548 26.667 13.7342 26.667H5.39592C4.47734 26.667 3.72788 25.92 3.72788 25C3.72788 24.08 4.47734 23.333 5.39592 23.333H13.8783L15.0571 24.512C15.3703 24.825 15.7945 25 16.2358 25H17.0703C17.9909 25 18.7374 24.255 18.7374 23.333C18.7374 22.412 17.9909 21.667 17.0703 21.667ZM38.9521 21.868L27.7671 33.047C26.5073 34.307 24.8312 35 23.0501 35H20.4054C19.4848 35 18.7374 34.255 18.7374 33.333V30.69C18.7374 28.91 19.4328 27.235 20.6926 25.977L31.8777 14.798C33.7669 12.908 37.0629 12.908 38.9541 14.798C40.9034 16.748 40.9013 19.918 38.9521 21.868ZM36.5936 17.155C35.9632 16.523 34.8646 16.523 34.2362 17.155L23.0491 28.333C22.4187 28.963 22.0714 29.8 22.0714 30.69V31.667H23.0491C23.9257 31.667 24.7862 31.31 25.4066 30.69L36.5926 19.512C37.2431 18.862 37.244 17.805 36.5936 17.155Z" fill="#4F378A"/>
</svg>
