<svg width="39" height="40" viewBox="0 0 39 40" fill="none" xmlns="http://www.w3.org/2000/svg">
<path d="M28.4706 25C26.6671 25 25.2001 26.495 25.2001 28.333C25.2001 30.172 26.6671 31.667 28.4706 31.667C30.2751 31.667 31.742 30.172 31.742 28.333C31.742 26.495 30.2751 25 28.4706 25ZM28.4706 30C27.5698 30 26.8358 29.253 26.8358 28.333C26.8358 27.413 27.5698 26.667 28.4706 26.667C29.3724 26.667 30.1063 27.413 30.1063 28.333C30.1063 29.253 29.3724 30 28.4706 30ZM37.4754 30.797L36.4186 30.168C36.5727 29.525 36.6482 28.922 36.6482 28.333C36.6482 27.745 36.5727 27.142 36.4186 26.498L37.4754 25.87C38.0416 25.533 38.4449 24.993 38.6117 24.347C38.7785 23.7 38.6873 23.027 38.3566 22.45C37.6746 21.26 36.1703 20.855 35.0007 21.552L33.9547 22.175C33.0765 21.362 32.0462 20.757 30.9237 20.395V19.165C30.9237 17.787 29.8237 16.665 28.4706 16.665C27.1185 16.665 26.0175 17.787 26.0175 19.165V20.395C24.894 20.757 23.8656 21.362 22.9874 22.175L21.9395 21.552C20.7679 20.857 19.2656 21.26 18.5846 22.45C18.2549 23.027 18.1646 23.7 18.3295 24.347C18.4963 24.993 18.9006 25.533 19.4667 25.87L20.5225 26.498C20.3695 27.142 20.2939 27.745 20.2939 28.333C20.2939 28.922 20.3695 29.525 20.5225 30.168L19.4667 30.797C18.9006 31.133 18.4963 31.673 18.3295 32.32C18.1627 32.967 18.2549 33.64 18.5846 34.217C19.2656 35.408 20.7698 35.812 21.9404 35.115L22.9874 34.492C23.8656 35.305 24.896 35.912 26.0175 36.27V37.5C26.0175 38.878 27.1185 40 28.4706 40C29.8237 40 30.9237 38.878 30.9237 37.5V36.27C32.0462 35.91 33.0765 35.305 33.9547 34.492L35.0027 35.115C36.1723 35.812 37.6766 35.407 38.3566 34.217C38.6873 33.64 38.7775 32.967 38.6117 32.32C38.4449 31.673 38.0416 31.133 37.4754 30.797ZM36.9455 33.377C36.7169 33.772 36.2145 33.905 35.827 33.677L34.2393 32.732C33.9106 32.537 33.4896 32.598 33.2296 32.882C32.3308 33.858 31.1876 34.53 29.9248 34.823C29.5519 34.91 29.2889 35.247 29.2889 35.635V37.502C29.2889 37.96 28.922 38.335 28.4706 38.335C28.0192 38.335 27.6532 37.96 27.6532 37.502V35.635C27.6532 35.247 27.3883 34.908 27.0174 34.823C25.7545 34.53 24.6114 33.858 23.7116 32.882C23.5536 32.708 23.3358 32.618 23.115 32.618C22.9747 32.618 22.8305 32.655 22.7029 32.732L21.1162 33.677C20.7277 33.907 20.2253 33.775 19.9976 33.377C19.769 32.993 19.9083 32.453 20.292 32.235L21.8934 31.283C22.224 31.088 22.3761 30.687 22.2613 30.315C22.0356 29.582 21.9307 28.952 21.9307 28.335C21.9307 27.718 22.0356 27.088 22.2613 26.355C22.3761 25.983 22.224 25.582 21.8934 25.387L20.292 24.435C19.9083 24.217 19.769 23.677 19.9976 23.293C20.2233 22.897 20.7257 22.763 21.1162 22.993L22.7048 23.938C23.0316 24.135 23.4535 24.072 23.7135 23.788C24.6114 22.812 25.7565 22.142 27.0184 21.847C27.3913 21.76 27.6552 21.423 27.6552 21.035V19.168C27.6552 18.708 28.0212 18.335 28.4726 18.335C28.924 18.335 29.29 18.708 29.29 19.168V21.035C29.29 21.423 29.5539 21.762 29.9268 21.847C31.1906 22.142 32.3337 22.812 33.2316 23.788C33.4935 24.072 33.9135 24.135 34.2403 23.938L35.827 22.993C36.2145 22.763 36.7179 22.893 36.9455 23.293C37.1741 23.677 37.0358 24.217 36.6512 24.435L35.0498 25.387C34.7201 25.582 34.568 25.983 34.6819 26.355C34.9075 27.088 35.0125 27.718 35.0125 28.335C35.0125 28.952 34.9075 29.582 34.6819 30.315C34.568 30.687 34.7201 31.088 35.0498 31.283L36.6512 32.235C37.0358 32.453 37.1741 32.993 36.9455 33.377ZM17.7378 38.132C16.7075 38.267 15.6409 38.335 14.5704 38.335C7.92249 38.335 2.30491 35.663 2.30491 32.502V27.75C4.62553 30.102 9.19417 31.668 14.5704 31.668C15.0217 31.668 15.3878 31.295 15.3878 30.835C15.3878 30.375 15.0217 30.002 14.5704 30.002C7.92249 30.002 2.30491 27.33 2.30491 24.168V19.417C4.62553 21.768 9.19417 23.335 14.5704 23.335C15.0217 23.335 15.3878 22.962 15.3878 22.502C15.3878 22.042 15.0217 21.668 14.5704 21.668C7.92249 21.668 2.30491 18.997 2.30491 15.835V11.083C4.62553 13.435 9.19417 15.002 14.5704 15.002C19.9456 15.002 24.5152 13.435 26.8358 11.083V12.502C26.8358 12.962 27.2019 13.335 27.6532 13.335C28.1046 13.335 28.4706 12.962 28.4706 12.502V7.50201C28.4706 3.29501 22.3663 0 14.5704 0C6.77444 0 0.669189 3.295 0.669189 7.5V32.5C0.669189 36.705 6.77444 40 14.5704 40C15.7096 40 16.8449 39.927 17.9439 39.783C18.3923 39.725 18.7093 39.307 18.6524 38.85C18.5945 38.393 18.1872 38.072 17.7359 38.128L17.7378 38.132ZM14.5704 1.66699C21.2183 1.66699 26.8358 4.338 26.8358 7.5C26.8358 10.662 21.2183 13.333 14.5704 13.333C7.92249 13.333 2.30491 10.662 2.30491 7.5C2.30491 4.338 7.92249 1.66699 14.5704 1.66699Z" fill="#ED875B"/>
</svg>
